<?xml version="1.0" standalone="no"?>
<!DOCTYPE svg PUBLIC "-//W3C//DTD SVG 20010904//EN"
 "http://www.w3.org/TR/2001/REC-SVG-20010904/DTD/svg10.dtd">
<svg version="1.0" xmlns="http://www.w3.org/2000/svg"
 width="576.000000pt" height="576.000000pt" viewBox="0 0 576.000000 576.000000"
 preserveAspectRatio="xMidYMid meet">
<metadata>
Created by potrace 1.11, written by Peter Selinger 2001-2013
</metadata>
<g transform="translate(0.000000,576.000000) scale(0.100000,-0.100000)"
fill="#000000" stroke="none">
<path d="M2835 5656 c-52 -30 -63 -47 -252 -386 -14 -25 -58 -104 -99 -175
l-74 -131 -77 -18 c-164 -38 -379 -119 -548 -207 -79 -40 -253 -146 -272 -165
-7 -7 -29 -22 -50 -35 -21 -13 -42 -28 -48 -34 -5 -7 -32 -29 -60 -51 -67 -52
-282 -266 -330 -329 -22 -27 -44 -54 -49 -60 -21 -19 -66 -84 -66 -93 0 -6 -3
-12 -8 -14 -4 -1 -27 -34 -52 -72 -130 -201 -243 -454 -305 -679 -30 -112 -28
-102 -61 -287 -2 -14 -6 -50 -9 -80 -3 -30 -8 -75 -11 -100 -6 -48 -6 -319 0
-385 3 -36 7 -70 21 -175 3 -19 7 -46 10 -60 3 -14 8 -41 11 -60 11 -64 61
-249 81 -300 4 -8 7 -17 7 -20 3 -14 63 -165 77 -191 5 -11 -31 -133 -113
-375 -82 -244 -121 -374 -121 -405 -1 -50 21 -88 61 -107 26 -12 127 -9 237 7
39 5 93 12 120 16 28 3 66 8 85 10 19 2 60 7 90 11 30 4 69 8 85 10 17 2 57 6
90 9 l60 5 65 -60 c36 -33 68 -60 71 -60 4 0 22 -13 40 -30 19 -16 37 -30 41
-30 4 0 13 -6 20 -13 63 -60 403 -242 548 -292 3 -1 12 -4 20 -8 76 -31 302
-93 405 -111 274 -48 595 -52 835 -10 14 2 41 7 60 10 127 20 324 77 465 134
92 37 268 120 275 129 3 4 16 12 30 19 91 44 224 136 366 254 l69 56 70 -3
c39 -2 135 -6 215 -10 80 -3 192 -8 250 -12 213 -11 263 -6 304 32 52 48 34
124 -94 410 -10 22 -37 85 -60 140 -23 55 -51 119 -61 142 -44 97 -46 80 26
248 7 17 28 75 45 130 44 138 48 155 56 195 8 45 12 65 14 65 1 0 3 9 5 20 3
23 15 99 21 135 19 119 26 498 11 603 -4 26 -10 68 -13 95 -3 26 -7 54 -9 62
-2 8 -7 29 -10 47 -20 120 -88 349 -140 474 -36 85 -140 292 -165 329 -5 8
-33 51 -62 95 -29 44 -56 82 -60 83 -4 2 -8 10 -8 17 0 7 -3 15 -7 17 -5 2
-35 37 -68 78 -69 86 -271 291 -330 335 -22 16 -42 32 -45 35 -5 5 -92 70
-150 111 -200 143 -543 297 -792 354 -94 22 -97 23 -132 75 -82 124 -140 205
-148 208 -4 2 -8 10 -8 17 0 7 -3 15 -8 17 -4 2 -27 32 -52 68 -24 36 -58 85
-74 108 -17 24 -36 51 -41 60 -32 53 -89 122 -112 137 -38 25 -85 34 -108 21z
m313 -1130 c9 -3 42 -8 72 -11 30 -3 71 -10 90 -15 19 -5 48 -11 63 -14 45 -8
135 -35 227 -68 84 -30 290 -125 300 -137 3 -4 20 -13 38 -20 17 -8 32 -17 32
-21 0 -4 11 -12 25 -18 56 -26 226 -163 330 -267 163 -163 288 -337 389 -543
40 -83 103 -244 111 -287 3 -11 13 -54 24 -95 11 -41 23 -88 26 -105 2 -16 7
-41 10 -55 11 -57 18 -174 19 -325 1 -162 -2 -201 -29 -360 -7 -47 -50 -211
-71 -274 -39 -115 -143 -338 -179 -381 -7 -8 -16 -25 -19 -37 -4 -13 -11 -23
-15 -23 -4 0 -16 -16 -27 -35 -10 -19 -22 -35 -26 -35 -5 0 -8 -5 -8 -11 0
-17 -134 -173 -225 -262 -78 -77 -245 -210 -295 -237 -14 -7 -27 -16 -30 -19
-9 -11 -63 -41 -170 -94 -192 -97 -428 -171 -615 -193 -185 -22 -427 -22 -545
0 -14 3 -41 8 -60 10 -19 3 -46 8 -60 11 -14 3 -34 7 -46 9 -61 12 -192 53
-292 92 -161 64 -269 123 -417 228 -117 82 -140 102 -255 216 -80 80 -210 231
-210 245 0 3 -8 14 -18 25 -39 42 -212 360 -212 391 0 6 -7 25 -14 42 -14 31
-51 142 -61 182 -15 66 -37 165 -41 194 -3 18 -8 43 -10 55 -5 25 -17 225 -17
281 0 267 72 584 185 822 23 48 40 88 38 88 -3 0 1 7 8 15 7 8 37 56 68 105
85 138 156 227 278 350 127 128 174 167 307 258 89 60 289 164 384 200 61 23
80 30 85 32 3 1 37 11 75 23 114 34 244 59 378 71 87 8 375 6 405 -3z"/>
<path d="M3761 3724 c-39 -20 -110 -84 -272 -245 -216 -216 -219 -219 -254
-213 -20 3 -58 6 -85 7 -28 1 -50 4 -50 7 0 3 -21 5 -48 6 -45 0 -181 11 -232
19 -14 2 -65 7 -115 11 -49 4 -99 8 -110 9 -11 1 -54 5 -95 9 -41 4 -97 9
-125 12 -59 6 -129 13 -205 19 -99 9 -174 16 -214 21 -22 2 -71 6 -109 9 -38
3 -72 7 -76 9 -4 3 -43 -31 -86 -75 -44 -43 -74 -79 -67 -79 7 0 31 -9 55 -19
23 -10 101 -42 172 -71 72 -28 139 -56 150 -61 11 -4 128 -52 260 -104 132
-53 276 -111 320 -129 44 -18 96 -39 115 -46 19 -7 39 -17 45 -22 5 -4 17 -8
27 -8 29 0 21 -22 -30 -76 -62 -67 -176 -193 -199 -220 -115 -135 -157 -174
-182 -169 -14 2 -53 7 -86 10 -33 3 -73 8 -90 10 -16 3 -50 7 -75 9 -25 3 -61
7 -80 10 -43 7 -97 14 -170 21 -54 6 -55 6 -100 -38 -25 -24 -58 -58 -74 -75
l-28 -31 103 -49 c247 -118 364 -175 368 -178 2 -2 -8 -31 -24 -65 -32 -72
-35 -127 -8 -147 18 -13 81 -12 146 4 16 4 27 2 27 -4 0 -13 232 -386 242
-390 5 -2 6 -7 3 -12 -2 -4 3 -15 13 -23 17 -16 23 -11 100 65 89 88 84 76 66
173 -3 17 -7 45 -9 63 -2 18 -6 41 -9 50 -3 9 -8 40 -12 67 -3 28 -8 59 -10
70 -4 20 -6 27 -27 154 l-12 75 228 228 c125 125 230 228 233 228 2 0 4 -7 4
-15 0 -8 4 -23 9 -33 5 -9 24 -55 41 -102 18 -47 36 -94 40 -105 11 -25 210
-556 214 -570 4 -15 17 -47 27 -70 5 -11 28 -74 53 -140 59 -159 57 -155 66
-155 4 0 43 36 86 81 67 68 79 86 78 112 -2 39 -13 178 -19 227 -4 34 -11 102
-20 205 -7 81 -15 167 -20 214 -3 24 -7 73 -10 110 -5 72 -11 129 -19 206 -3
28 -8 82 -11 120 -3 39 -8 86 -10 105 -2 19 -7 69 -10 110 -3 41 -7 93 -9 116
l-4 41 200 199 c110 109 211 213 223 229 51 67 61 189 20 251 -44 68 -142 84
-234 38z"/>
</g>
</svg>
